<?xml version="1.0" encoding="utf-8"?>
<!-- Generator: Adobe Illustrator 22.1.0, SVG Export Plug-In . SVG Version: 6.00 Build 0)  -->
<svg version="1.1" id="Layer_1" xmlns="http://www.w3.org/2000/svg" xmlns:xlink="http://www.w3.org/1999/xlink" x="0px" y="0px"
	 viewBox="0 0 432 432" style="enable-background:new 0 0 432 432;" xml:space="preserve">
<path style="fill:#FFFFFF;" d="M191.9857025,424.7769775l-5.2904053-1.401886
	c-40.596283-10.7599487-59.626358-34.4690552-61.7038193-76.8754272
	c-1.7152481-35.0171509-24.4139099-54.2780762-55.8311157-80.9345093
	c-19.9016953-16.8863831-42.4590225-36.026825-65.7682877-63.7564545l-3.3920784-4.0344391l4.8233685-2.1260071
	c20.7747402-9.1540833,36.5517159-15.082901,44.7293663-18.0071411
	c-9.3224716-9.5972748-13.6788063-19.6100006-12.960865-29.8309631
	c1.7261543-24.5690308,32.0219345-44.1511841,54.1422653-58.4497757c3.9748459-2.5691452,7.7297745-4.9963226,10.8826218-7.17939
	c2.430191-1.682991,4.8402939-3.419899,7.2836075-5.1800461C129.8233643,61.921032,153.5378723,44.827858,211.7074585,44.827858
	c12.6296387,0,26.6448975,0.8229141,41.6645813,2.4471016c3.5896912-1.2350922,18.4781189-11.9363708,31.1632996-21.8346539
	c0.7365723-7.2179737,4.8889771-18.2172775,16.8740234-18.2172775c3.6815491,0,7.8563843,1.1040277,12.4079895,3.2779245
	c36.4437256,17.412693,112.8962097,120.742485,114.5142212,128.8267212
	c0.0926514,0.4630737,0.6036377,1.6303406,1.0143738,2.5691528c1.7709351,4.0420227,4.4450378,10.1515503,0.941803,15.5089874
	c-3.17276,4.8543549-10.2209473,7.1145782-22.1789856,7.1161804l-0.7302856-0.0030212
	c-17.1519775,0-68.6105957,40.4625244-117.2199707,92.1173859c-49.2222748,52.306427-100.9481354,122.510376-98.504837,162.6780701
	L191.9857025,424.7769775L191.9857025,424.7769775z M12.8805599,200.7557526
	c21.6717968,25.0769958,42.7167206,42.934433,61.3940735,58.7817841
	c32.9343491,27.9441528,56.7299271,48.134552,58.6127853,86.5760498
	c1.8187714,37.1385803,17.1001282,57.796814,50.8194427,68.1861572
	c2.0349121-54.0866394,77.0762177-137.9823914,100.6950226-163.0810547
	c44.2406616-47.0122223,100.6648254-94.6048126,122.9070435-94.6048126l0.7982788,0.003006
	c11.9609985-0.0015717,14.8699341-2.4733429,15.5646362-3.5372162c1.1626892-1.7770538-0.4153137-5.3822479-1.5670776-8.0130463
	c-0.6314697-1.4436493-1.1826172-2.7019806-1.4651489-3.9187317
	c-3.4043884-7.6657257-74.5587769-106.4700012-110.2296753-123.513855
	c-3.4793396-1.6629162-6.5071411-2.5059166-9.0005798-2.5059166c-8.7427063,0-9.081543,11.9055424-9.0916748,12.4119434
	l-0.0377808,1.8728733l-1.472229,1.1563587c-20.812561,16.3537273-33.3503113,24.6463299-37.2642365,24.6463299
	l-0.5473633-0.0294113c-14.9184875-1.6273422-28.8096466-2.4532623-41.2886047-2.4532623
	c-55.6173706,0-78.2325745,16.2996597-98.1853256,30.6801224c-2.4841003,1.7909851-4.9345093,3.5572891-7.4062729,5.2679596
	c-3.2554779,2.2542038-7.0613098,4.7136383-11.0903778,7.3183746c-20.720665,13.393898-49.0988235,31.7360687-50.547821,52.3634644
	c-0.6584969,9.3781128,4.2877197,18.4998016,15.1216431,27.8886871l5.2904053,4.5855713l-6.6590996,2.1614227
	C58.0475502,183.0587921,40.5877342,188.7621307,12.8805599,200.7557526L12.8805599,200.7557526z M84.0209808,168.9902649
	l-2.2997437-2.1399231c-3.9595032-3.6871033-13.1576996-12.9338379-13.0611038-19.163681
	c0.02845-1.8295593,0.7688446-3.4723969,2.0850449-4.6241455c0.6531143-0.5713959,72.1285553-58.9392471,84.2695007-62.0982819
	c5.5327911-1.4404602,16.624588-3.8551559,28.7563629-3.8551559c7.0249329,0,13.3474274,0.8151703,18.7930908,2.4254456
	l6.6026459,1.9516068l-5.0154572,4.7183838c-6.3264465,5.9488907-106.1629868,73.3612976-117.5257645,81.0287476
	L84.0209808,168.9902649L84.0209808,168.9902649z M76.7040329,148.3660278
	c0.7288589,2.0502625,4.1501694,6.4382324,8.1645432,10.5158386
	c37.1177139-25.0585022,88.7075806-60.1743393,107.1779785-73.4107819c-2.5976105-0.304184-5.3605957-0.4569092-8.2755127-0.4569092
	c-11.2516174,0-21.5986176,2.2556305-26.7647247,3.5988693C148.5083313,90.8255234,86.4782028,140.1104126,76.7040329,148.3660278
	L76.7040329,148.3660278z"/>
</svg>
