<?xml version="1.0" encoding="utf-8"?>
<!-- Generator: Adobe Illustrator 22.1.0, SVG Export Plug-In . SVG Version: 6.00 Build 0)  -->
<svg version="1.1" id="Layer_1" xmlns="http://www.w3.org/2000/svg" xmlns:xlink="http://www.w3.org/1999/xlink" x="0px" y="0px"
	 viewBox="0 0 432 432" style="enable-background:new 0 0 432 432;" xml:space="preserve">
<g>
	<path style="fill:#FFFFFF;" d="M431.3240051,143.7136536c-0.485199-6.3992767-1.1512756-15.1636353-1.7625427-29.3026581
		l-0.6325378-14.6561813l-14.0548401,4.2056351l-17.9313354,5.3657913l-5.8064575,1.7375107l-1.81604,5.7829971
		c-0.175293,0.5560837-0.3637695,1.1367188-0.543335,1.703476c-3.1313477-2.6890335-7.1864319-4.2787399-11.7099609-4.2792969
		c-0.1875,0-0.3759766,0.0027161-0.5645142,0.0083694l0.0523987-0.2817383l-3.3766785,0.6470413
		c-0.0100403,0.0022354-0.0200806,0.0039749-0.031311,0.0061417c-0.0099182,0.0022964-0.0211487,0.0039063-0.0323181,0.0062027
		l-13.040802,2.4988174l-9.7387695,1.8657227c-15.8062134-21.9550781-36.8968201-39.7883682-61.9107971-51.9511719
		c-22.8007813-11.0858002-47.1231079-16.7070351-72.2933044-16.7070351h-0.0106659
		c-30.6190796,0.0021629-60.6290588,8.4770508-86.7858582,24.5086479
		c-21.9785919,13.4707794-40.3717957,31.8148727-53.9201355,53.6200485
		c-6.7960358,1.099884-13.9717445,3.4174805-21.4498405,6.9872437
		c-15.7895546,7.5361328-30.8215027,20.7414093-41.2413521,36.2292786
		c-11.7049389,17.3980255-15.5016747,34.409668-10.690918,47.9000397
		c5.4343615,15.2327728,16.459404,17.5063477,22.5470161,17.5063477c4.1805248,0,8.7252369-1.0207825,13.8155003-3.1123657
		l5.8198929,53.02211l0.8131981,7.4094543c-4.3016205,2.4665222-8.6070747,4.9674988-12.9219437,7.5456238L5.5611048,317.8383789
		l30.4785881,5.2084961l51.4508171,8.7917175l3.7901154,0.8644714c3.0599823,0.6994934,6.1462021,1.4010925,9.2434387,2.0994568
		c12.4897461,12.1159973,26.9667282,22.2964478,43.0697632,30.1254272
		c22.8002167,11.0874634,47.1276398,16.7087708,72.3050232,16.7087708c30.618515,0,60.6279449-8.4737854,86.784317-24.5075378
		c26.880249-16.475647,48.4071045-40.2368164,62.2532349-68.7134399
		c9.6071167-19.758667,15.1034241-40.7879486,16.4353943-62.0749207c4.0818787-1.8853302,7.9841003-3.877655,11.6575623-6.0172272
		c24.7216797-14.4006653,37.4300537-34.1152344,38.8490601-60.2642975
		C432.1907043,155.1302338,431.8639221,150.8258972,431.3240051,143.7136536z"/>
	<path style="fill:#212020;" d="M426.7681274,144.059433c-0.488678-6.4304504-1.1567993-15.237793-1.7715454-29.4515915
		l-0.3792419-8.7933197l-8.4324951,2.5234375l-17.9312744,5.3657227l-3.4850159,1.0424805l-1.0899048,3.4699326
		c-1.0631409,3.3851166-2.2433777,6.9854965-3.5619507,10.7182007c-1.6287537-6.0272827-6.6487122-10.0940323-13.0497437-10.0940323
		c-0.997345,0-2.0269165,0.1003723-3.059906,0.2983398c-1.1257019,0.215332-2.2022095,0.5148544-3.2361755,0.8835754
		l0.0512695-0.2739258l-9.8883362,1.8948135l-12.6335144,2.4212494
		c-15.5419312-22.4359665-36.657074-40.6238861-61.8740845-52.8849106
		c-22.1726379-10.7806892-45.8234558-16.2468605-70.2947845-16.2468605h-0.0017548
		c-29.7851563,0.0021629-58.9695892,8.2439308-84.4075775,23.8348198
		c-21.9651871,13.4631042-40.234024,31.9427338-53.5040436,53.9285736
		c-6.9576569,0.85289-14.4228439,3.1530457-22.2852898,6.9069519c-15.0738716,7.1946869-29.4416866,19.8266602-39.4185944,34.656311
		C5.796526,190.1892395,2.0867047,206.158905,6.3359375,218.0746307c4.2675085,11.9609375,12.2760887,14.470993,18.243721,14.470993
		c4.3611202,0,9.3097839-1.3498993,15.1268845-4.1254272l2.5389252-1.2114258l6.5108833,59.3172607l1.1362991,10.3968201
		c-5.1394386,2.914978-10.2855072,5.8990784-15.443779,8.9801941l-15.9267597,9.5146484l18.2872524,3.1245728l51.5747757,8.8139648
		l3.9111328,0.8924561c3.4799805,0.794281,6.9893951,1.5952759,10.5161819,2.3872681
		c12.3487015,12.1706238,26.7314377,22.3801575,42.7802658,30.1835327
		c22.1733398,10.7816467,45.828064,16.2478943,70.3071289,16.2478943c29.775116,0,58.9591217-8.2416382,84.3969879-23.8337708
		c26.1351013-16.0204468,47.0673828-39.1245728,60.5309753-66.815918
		c9.7543945-20.0597839,15.1435547-41.4671478,16.1229553-63.0989227c4.8761292-2.156311,9.4978638-4.4499054,13.7792969-6.9436951
		c23.2949219-13.5690002,35.2637634-32.0765991,36.5878296-56.5796661
		C427.6115417,155.1732025,427.293457,150.9859161,426.7681274,144.059433z M305.0090637,258.2200012
		c0.2911682,1.7692566,1.9365845,3.0041199,3.7727356,2.7085571c0.6838684-0.1127014,1.4067383-0.2454529,2.2232971-0.4093628
		c-1.6163635,2.3414917-3.3209534,4.5301819-5.0791016,6.5180664c-2.8434753,0.1015625-5.5821838-0.0177917-8.0854492-0.3468933
		c-1.8228149-0.2409363-3.4525757,1.0575256-3.6857605,2.8279114c-0.1148987,0.8701172,0.1159363,1.7324219,0.6503296,2.4285583
		c0.5343933,0.6949768,1.3074036,1.1412048,2.1775208,1.256134c0.7396851,0.0969849,1.5161133,0.1806641,2.3181458,0.2476501
		c-2.1072693,1.7301941-4.3327332,3.2874451-6.631897,4.640686c-2.6451111-0.7843323-5.1739807-1.7792969-7.5199585-2.9562683
		c-0.4607849-0.2319946-0.9549255-0.3491821-1.4692383-0.3491821c-1.2516785,0-2.3771667,0.6938477-2.9382629,1.8117371
		c-0.3939209,0.7830505-0.4585571,1.6732483-0.1818542,2.5066223c0.2755432,0.8321533,0.8600159,1.5082397,1.6442566,1.9009399
		c0.6582031,0.3312683,1.3632202,0.6603699,2.1708374,1.0150757c-2.4977112,0.9224854-5.1359558,1.682251-7.8579102,2.2612305
		c-2.2902527-1.5606995-4.511322-3.2931213-6.6029053-5.15271c-1.3018799-1.1590881-3.4760742-1.0296936-4.6362305,0.2721863
		c-0.5834961,0.6559753-0.8757019,1.4992981-0.8244324,2.375c0.0513611,0.8757629,0.4406433,1.6789246,1.0965576,2.2611694
		c0.5521545,0.4908752,1.1357422,0.9905701,1.7961121,1.537323c-2.6940613,0.2029724-5.5353699,0.2776794-8.4012451,0.2174988
		c-1.9487915-2.0448608-3.8196106-4.1654663-5.716095-6.4791565c-0.6257629-0.7651978-1.5517578-1.2036743-2.5412292-1.2036743
		c-0.7551575,0-1.4937134,0.2643738-2.0793762,0.7441406c-0.6793365,0.5555115-1.1010742,1.3430481-1.1869354,2.2153931
		c-0.0869904,0.8735352,0.1717987,1.7268372,0.7272491,2.4052124c0.4898834,0.5978699,0.9761505,1.1790466,1.4614258,1.7490845
		c-2.6950989-0.2654724-5.4962921-0.6179504-8.5216217-1.0742188c-1.6867981-2.2579346-3.3656464-4.5938721-5.1293945-7.1372681
		c-0.6123657-0.8857422-1.6231079-1.4145508-2.7017975-1.4145508c-0.6704865,0-1.31633,0.2018738-1.868515,0.5845337
		c-1.488205,1.0329895-1.859726,3.0822449-0.8288879,4.5704651c0.42836,0.6168213,0.8488464,1.2181702,1.2649994,1.8071289
		c-2.5924988-0.4919739-5.3948212-1.056366-8.5250397-1.717926l-3.2874603-4.9552917
		c30.800354-14.9328308,63.48703-23.8995514,94.0375977-32.2683411c1.6408997-0.4496307,3.275238-0.8980865,4.9049988-1.3454132
		c-0.9013062,3.5262146-1.9857178,6.9777374-3.2294312,10.3534393l-0.293457,0.0825958
		c-2.7018738,0.7574615-5.2977905,1.3419952-7.7140198,1.7390442c-0.8656311,0.1418152-1.6242981,0.6125183-2.1351013,1.3253326
		C305.0703735,256.4852905,304.8674011,257.3542175,305.0090637,258.2200012z M295.9474792,282.2612305l0.2342224-0.0446472
		l0.0456848,0.074707c1.9935303-1.2147827,3.9525146-2.5981445,5.8488464-4.1096497
		c-3.3108826,4.5703125-6.9688721,8.8720093-10.9480286,12.8544922c1.8941956-2.5379333,3.5675964-5.1828308,4.9787292-7.9282227
		c0.0713501-0.1450195,0.1282654-0.2979126,0.1907654-0.4842224l0.0435486-0.1282959
		c0.015625-0.0601807,0.0245361-0.1203918,0.03125-0.1795349L295.9474792,282.2612305z M206.7529297,282.774353l5.5622253,1.2294006
		l-1.9075775,0.7618103c-1.6817169,0.672699-2.5027161,2.5881653-1.8307037,4.2681885
		c0.5014648,1.256073,1.6990051,2.0670471,3.0504913,2.0670471c0.4178314,0,0.827713-0.0791626,1.2177124-0.2353516
		l9.7682037-3.9044495c0.2041779-0.0814514,0.4049988-0.1863098,0.5990448-0.3156433
		c0.1026917-0.0680542,0.199707-0.1417236,0.293457-0.2197876c2.4174194,0.5019531,4.642868,0.9471436,6.755722,1.349762
		c-0.6123657,0.2633057-1.2359772,0.5299072-1.8785553,0.7998657c-1.6677551,0.7038879-2.453125,2.6338501-1.7502747,4.3026733
		c0.5154114,1.2204895,1.703476,2.0091248,3.0276184,2.0091248c0.4384766,0,0.8678131-0.0870361,1.2750397-0.2588501
		c3.6489258-1.5394287,6.8572845-2.9661865,9.8614655-4.3895874c0.1495667-0.0748291,0.293396-0.1617432,0.4440613-0.2666016
		l0.1259766-0.0927124c0.0802917-0.0624084,0.1584778-0.1293945,0.2320099-0.1985168
		c2.3895111,0.3391418,4.7166595,0.6236267,6.9388275,0.8466797c-0.5834961,0.3134766-1.1780853,0.6280823-1.7871857,0.9438477
		c-0.7797089,0.4026184-1.3553314,1.084259-1.6208191,1.9208984c-0.2666016,0.8355408-0.1907806,1.7257385,0.2119141,2.5044861
		c0.5666962,1.0964661,1.6856232,1.7769775,2.9194336,1.7769775c0.518692,0,1.0396271-0.1271667,1.5059357-0.368103
		c3.5006256-1.8094177,6.6230316-3.5875244,9.5569305-5.4416809c0.0724487-0.0456848,0.140625-0.1015625,0.2086792-0.1584167
		l-0.2755127-0.3279724l0.3970337,0.2321472c0.0669556-0.0514221,0.1338501-0.1027527,0.1974792-0.1629639
		c0.03125-0.0301208,0.059082-0.0635986,0.0892944-0.1036987c0.0500793-0.0535889,0.1003723-0.1071472,0.1483459-0.1629028
		l0.7284546,0.0033569c2.1775208,0,4.3205261-0.0714111,6.3886719-0.2130127
		c-0.547699,0.4249878-1.0608826,0.8120117-1.5684204,1.1835022c-1.4601746,1.0709534-1.7770691,3.1303101-0.7073059,4.5915833
		c0.6169739,0.8400574,1.6087341,1.3421021,2.6517029,1.3421021c0.7017212,0,1.3732605-0.2197266,1.9400024-0.6347656
		c3.1713867-2.3258972,6.0484924-4.7579041,8.5618286-7.2399597l-0.3034363-0.3033752l0.3860168,0.2241821
		c0.1617432-0.1595154,0.3078308-0.3402405,0.4428711-0.5444336c0.0356445-0.0535583,0.0623474-0.1080933,0.1383057-0.2576599
		c0.0055237-0.0112305,0.0122986-0.0211487,0.0178833-0.031189c2.3894958-0.54776,4.7321167-1.2305298,6.9854736-2.03479
		c-0.3981628,0.5354919-0.7797241,1.0296326-1.1545105,1.4926758c-1.1379089,1.4077759-0.9180908,3.4803772,0.4896851,4.6194153
		c0.5822449,0.4707642,1.3152161,0.7296143,2.0626526,0.7296143c0.3257446,0,0.6392212-0.0636597,0.9425659-0.1551208
		c-18.953186,17.5409546-44.2840271,28.2836914-72.0834808,28.2836914c-17.503006,0-34.0293732-4.2580261-48.6023254-11.7869568
		C179.7527161,299.4764099,192.996582,290.4259338,206.7529297,282.774353z M263.6131287,132.0661926l-0.0211182,0.02742
		c0.0513306,0.088028,0.1037292,0.1750793,0.1907654,0.2960968c0.0456848,0.0574188,0.0948181,0.1071472,0.1438293,0.1561127
		l0.0982361,0.1054688c0.0423889,0.0518341,0.0870361,0.1026764,0.137207,0.1489258
		c2.4475403,2.2562103,4.503479,4.6886902,6.1109619,7.2281799c0.3280029,0.5187531,0.786499,0.8952179,1.3275146,1.0894165
		c0.2633057,0.0931244,0.5410156,0.140564,0.8265686,0.140564c0.62146,0,1.2483521-0.2231445,1.8117371-0.6437073
		c1.4534912-1.0820313,1.9086914-3.0516052,1.0351563-4.484024c-0.3434753-0.5627136-0.7083435-1.1254883-1.0899048-1.6827545
		c1.9344177,0.7022247,3.8442993,1.5629883,5.6961365,2.5657806c0.012207,0.099884,0.027832,0.2014465,0.059021,0.340744
		c0.0189819,0.0698242,0.0447083,0.134491,0.0714417,0.1985931l0.0491028,0.1338654
		c0.0189819,0.0630493,0.0390625,0.1261139,0.0680847,0.19133c1.2839661,2.8401947,2.2332458,5.8907623,2.8211975,9.0671844
		c0.0690613,0.3681641,0.2085876,0.7023468,0.3970642,1.0001373c-2.946167-4.0238647-7.4942322-6.3168335-13.1199036-6.3173828
		c-2.0270081,0-4.2001343,0.2950592-6.4579468,0.8779907c-1.0050964,0.2592773-1.9868164,0.5682983-2.9428711,0.927536
		l1.4078369-11.5018158l0.0201111,0.0016022C262.7084351,131.9680481,263.1613464,132.0171509,263.6131287,132.0661926z
		 M262.8891602,126.5849609l0.6816406-5.5604782c2.0548401,1.0335541,4.0683594,2.1390915,6.0451355,3.2992477
		c-1.3843384,0.7848053-2.7385559,1.6347656-4.0237122,2.5401077
		C264.7064819,126.75,263.7983398,126.6569443,262.8891602,126.5849609z M289.1169128,145.2899628
		c-0.1137695-0.6515045-0.2431641-1.306839-0.3859558-1.960022c1.4468384,1.3068542,2.8323669,2.7018738,4.1308594,4.1610565
		l0.0870667,0.0975189c-1.3219299,2.0381622-2.5480042,4.20961-3.6489258,6.5422058
		c-0.8512878,1.8043365-1.6031799,3.6282806-2.2646484,5.45047c-0.0234375-0.5326385-0.059082-1.0558014-0.1082153-1.5677948
		c-0.3670349-3.8452911-1.526001-7.1317749-3.3288879-9.7337494c0.0636292,0.0713501,0.125,0.1449432,0.1963806,0.2091217
		c0.5020752,0.4479675,1.1724854,0.6944733,1.8876038,0.6944733c0.2655029,0,0.5376892-0.0340424,0.806427-0.1004486
		C288.2300415,148.6612091,289.4092407,146.9598846,289.1169128,145.2899628z M192.9497833,154.4759369
		c-0.4613647-0.7607422-1.2048035-1.2906647-2.0939636-1.4914856c-0.6821289-0.1538849-1.3614655-0.3140411-2.0403137-0.4746857
		c2.0955505-0.8070526,4.1911926-1.6308594,6.2850037-2.463028l-0.0072479,0.0317383
		c0.0914459,0.053009,0.1835175,0.1048431,0.3240814,0.168457c0.0691986,0.0284576,0.1399994,0.0478516,0.2102356,0.0664063
		l0.1416779,0.0439453c0.0657806,0.0239868,0.1316223,0.046875,0.203537,0.0625l10.2541809,2.2411346
		c0.2421265,0.0535736,0.4891968,0.0802917,0.7357025,0.0802917c0.4345093,0,0.8601532-0.0818939,1.2651367-0.2442169
		c1.0122833-0.4049835,1.771347-1.269455,2.0302124-2.3131256c0.2124634-0.8572845,0.0753326-1.7397461-0.3865204-2.4854126
		c-0.4640045-0.7502136-1.2003937-1.2712097-2.0743561-1.4658203l-2.0458984-0.4501343
		c2.0776367-0.8300018,4.147049-1.6499634,6.2080841-2.4542389l0.0195313,0.0117188
		c0.0919342,0.0546265,0.1845703,0.1087494,0.3256836,0.1745911c0.0696869,0.0295868,0.141037,0.0501556,0.213028,0.0696869
		l0.1338654,0.0435333c0.0653534,0.025116,0.1316833,0.0491028,0.203537,0.06633
		c3.7784576,0.8824615,7.0642395,1.7045898,10.0473633,2.5133209c0.6480255,0.1757202,1.3341217,0.1506805,1.9633026-0.0713501
		c1.0006409-0.355896,1.7726746-1.1791382,2.0648804-2.2032013c0.2431641-0.8523254,0.1394348-1.7458038-0.2912292-2.5155487
		c-0.4271698-0.7619324-1.1254883-1.3101959-1.9688873-1.5450592c-0.674881-0.1873627-1.3586731-0.3647461-2.0426178-0.5399017
		c2.1720123-0.7698059,4.2893372-1.4859161,6.3141022-2.1352539l-0.0078888,0.0262909
		c0.0893555,0.0619507,0.1796875,0.1232605,0.3157806,0.199707c0.0680847,0.0346069,0.137146,0.0596466,0.2064056,0.084198
		l0.1282806,0.0518341c0.0634766,0.0295715,0.1282806,0.0580292,0.1985168,0.0802765
		c0.1895905,0.0585938,0.3748016,0.1210938,0.5611115,0.1835938l0.5566406,0.1807404l-2.7230835,22.4057617
		c-2.694046-3.0419922-6.6285553-4.7225952-11.4393005-4.7231445c-2.5568542,0-5.3106995,0.4589844-8.4191589,1.4027557
		c-9.2729492,2.8161316-16.83078,8.556778-22.2753296,16.8286133l0.1628876-9.296936l-7.0000763,2.4061737l0.2950592-9.0888672
		l0.0273438-0.8400574c3.0069122,0.7736511,6.1550751,1.5321655,9.6238251,2.3186493
		c0.2521515,0.0574799,0.5115662,0.0864868,0.7702942,0.0864868c0.4339447,0,0.8611908-0.0797272,1.2701569-0.2370148
		c1.040741-0.4005432,1.8288269-1.2651367,2.1077728-2.3142548
		C193.5264435,156.1007996,193.4015808,155.2216797,192.9497833,154.4759369z M209.5938263,187.6569519
		c0.1577148-0.7133789,0.3196106-1.3888855,0.4846497-2.0286713l3.59375,1.0715027
		c1.4568939,0.4339294,2.9299622,0.6542206,4.3785553,0.6542206c1.3631439,0,2.6973419-0.1946869,3.965744-0.5783997
		c1.0731049-0.3263092,2.128418-0.7936707,3.1279297-1.3972626l-1.1623077,9.5675354
		c-4.2145691,6.5996704-8.0632019,10.8203125-14.3270111,12.7234192c-0.377655,0.1143188-0.6961517,0.2002563-0.9621887,0.2644348
		c-0.0992737-0.3966217-0.2069702-0.91922-0.3078308-1.5991211
		C207.6744537,201.5215607,208.1485138,194.1895294,209.5938263,187.6569519z M148.1893768,177.6916199l-1.9762115,0.6800385
		c0.6972046-2.5585938,0.7981415-5.2481995,0.1667938-7.8602142c-0.4211884-1.743103-1.1467743-3.3238068-2.0939026-4.7260132
		c1.3085327,0.7601929,2.6616211,1.5043335,4.0595093,2.2064819l0.1762695,0.0887909L148.1893768,177.6916199z
		 M252.2401581,214.4312897l1.8696289-15.4977722c1.3643341,9.1535339,7.9495087,14.9957581,17.0679474,14.9957581
		c2.1196289,0,4.4031067-0.3117371,6.7836914-0.9264832c5.9771118-1.5412292,10.9335327-4.6552124,14.9941406-9.4459381
		c2.9930115,1.6906281,6.5649414,2.5763702,10.5742798,2.5763702c2.3459778,0,4.8949585-0.2984009,7.5756836-0.8874817
		c3.5362854-0.778595,6.9276123-1.9810944,10.1659546-3.5931854c0.3102112,2.2852173,0.5477905,4.5926971,0.7095337,6.9214478
		c-5.0700989,0.8316193-10.3343811,1.6633759-15.8486328,2.5295868c-16.19104,2.5439453-34.4604492,5.4231873-54.6419373,9.5178528
		L252.2401581,214.4312897z M334.4573669,199.2809753l17.430481-3.3388672l4.5760193-0.8768921l0.8678894-4.5770111
		l4.6005859-24.2421112c3.4569702,10.1364441,5.8644714,20.631073,7.1606445,31.3079681
		c-11.1142578,4.2569733-24.5544128,7.1590424-40.315918,9.8770905c-0.1741028-2.3282013-0.4262085-4.6340027-0.7396851-6.9203339
		L334.4573669,199.2809753z M368.2050781,163.387558c-1.1713867-3.3890228-2.4564819-6.7179108-3.8330688-9.9937286
		l1.3642578-7.1908417c0.0234985-0.025116,0.046936-0.04953,0.0703735-0.0740814
		c2.2734375,3.2613068,5.4984741,4.081131,8.165802,4.081131c0.8321838,0,1.7101746-0.0874786,2.6092529-0.2592773
		c2.1987915-0.4211884,4.1353149-1.1970673,5.8265686-2.2110901c-0.8121948,1.7018127-1.6565857,3.411911-2.5546875,5.131012
		c-4.8938293,3.8831482-7.9873047,10.1833038-8.0174255,16.5804138c-0.0268555,5.2832794,1.8841248,10.1281433,5.3802185,13.6421661
		c1.8875732,1.896347,4.9085083,4.0610352,9.4098206,5.0728912c-3.2853699,2.4960327-6.9398804,4.662384-10.947052,6.5839233
		C374.2523804,184.1881256,371.7658997,173.6902161,368.2050781,163.387558z M258.2451172,120.2547455l-0.1918945-0.1539536
		c-1.4367981-1.1506653-3.9155273-1.0313187-5.1983795,0.2470703c-0.7553101,0.7463074-1.533905,1.5606918-2.4508209,2.5641785
		l-0.5879669,0.6425781l-11.1074829,4.3483505c0.1605682-0.2488098,0.3223267-0.4986038,0.4896698-0.7456741
		c0.5154114-0.7609482,0.6950378-1.6890335,0.4919128-2.5462494c-0.2006836-0.8501663-0.7484741-1.562355-1.5394135-2.0046692
		c-0.5254669-0.2945023-1.1334381-0.4501953-1.7569733-0.4501953c-1.2773438,0-2.4776154,0.6365051-3.1325378,1.6594543
		c-1.5059357,2.3353806-2.987381,4.8247147-4.6529083,7.8227615c-2.6181641,0.812149-5.3457031,1.7234802-8.3052368,2.7743378
		l0.0311737-0.0641022c0.3134766-0.6419525,0.6259155-1.2840424,0.9538269-1.9237671
		c0.4150391-0.8104706,0.4808197-1.7173462,0.1840057-2.5535583c-0.2922668-0.8265991-0.9058228-1.4819336-1.727951-1.8450775
		c-0.440567-0.1952438-0.9113464-0.2939453-1.4011536-0.2939453c-1.353653,0-2.6076355,0.7635345-3.1932983,1.9449615
		c-1.1868744,2.3823242-2.4206848,4.959198-3.8759003,8.0972443c-2.6946106,1.0413513-5.3892365,2.1100616-8.0793762,3.1860352
		l0.9029694-2.0219727c0.3675995-0.8171082,0.3899994-1.7179871,0.0619354-2.5362091
		c-0.3262329-0.8159943-0.9616394-1.4507599-1.7876587-1.7870483c-0.408844-0.1667786-0.8400574-0.2511139-1.2823792-0.2511139
		c-1.3659973,0-2.6030884,0.7959747-3.1524811,2.0281219l-3.6177368,8.1262512
		c-3.0705261,1.2254486-5.6547241,2.2416992-8.0291595,3.155899l0.0752563-0.1611938
		c0.2889252-0.6185913,0.5773621-1.2371674,0.858963-1.8568726c0.365448-0.8037109,0.3927155-1.6962128,0.0775604-2.5138855
		c-0.3167419-0.822113-0.940918-1.4697266-1.756485-1.8228149c-0.4238892-0.1828918-0.8712311-0.2760925-1.3296509-0.2760925
		c-1.3057404,0-2.4993744,0.7642365-3.0410919,1.94664c-0.5576782,1.2193146-1.1282806,2.4357605-1.6999817,3.6512299
		l-0.006134,0.177948l-8.9093933,4.296524c0.4551392-1.4815216-0.184082-3.1079102-1.600235-3.8615417
		c-0.4763641-0.2532043-1.0078888-0.3869934-1.5366974-0.3869934c-1.1780853,0-2.2606659,0.6514282-2.8251953,1.7005463
		c-1.2001953,2.2345123-2.5172272,4.51297-4.0265808,6.9644165l-0.3507843,0.5700378l-0.2705078,0.1305847l-1.7452545,0.3792419
		c-2.0889435,0.4540405-4.187851,0.837204-6.2527313,1.142868c0.4546661-0.6084747,0.899704-1.2209167,1.3348236-1.8378906
		c1.0084381-1.4329071,0.677597-3.4838257-0.7385559-4.5731812c-1.3637085-1.0430298-3.3181458-0.7658234-4.32164,0.6035156
		c-1.712326,2.3409576-3.5619354,4.5665436-5.4990997,6.6163483c-2.7995148,0.0574188-5.5603943-0.0820313-8.1897888-0.4166412
		c0.6040649-0.4757843,1.1835938-0.9526978,1.7291412-1.425705c1.2739258-1.105545,1.4859009-3.1648254,0.4707642-4.5915833
		c-0.9705658-1.355957-2.777832-1.6103516-4.0695343-0.5639648c-0.7323608,0.5974426-1.5467377,1.1936951-2.3945313,1.7866211
		c19.3458405-26.4045105,50.5679321-43.5890808,85.7356262-43.5890808c15.8006439,0,30.8025208,3.4727249,44.2929535,9.6863785
		L258.2451172,120.2547455z M131.5057831,256.8969727c-3.7979126,1.5627747-7.590744,3.1770325-11.381485,4.8202515
		c-6.6330185-13.8551331-10.3522568-29.3591003-10.3522568-45.7174988c0-5.0980835,0.3691406-10.1114044,1.0670319-15.0197449
		c1.1037979-1.8524017,2.1267471-3.7472076,3.0421371-5.6910553c0.4701385-0.9989624,0.9040833-2.0046692,1.3180084-3.0136719
		l0.0328522,2.6471863l0.4763565,38.3415833c0.0574722,3.6132813,0.3742294,6.5571289,0.9688187,9.0236511
		C118.7215424,250.7513885,124.1944046,256.0714417,131.5057831,256.8969727z M74.4765625,156.87883
		c4.4109192,0.475174,7.706749,3.6964417,9.809639,9.5915222c3.7493057,10.5134583,2.0274811,26.0675964-4.6921005,36.4818726
		l-4.9792862-44.8306427L74.4765625,156.87883z M103.009552,211.6478729
		c-0.0546875,1.4447632-0.0915146,2.8937683-0.0915146,4.3518524c0,17.3535156,3.9134369,33.7900391,10.8978119,48.4851379
		c-8.7141495,3.8843384-17.4181824,7.9952698-26.1245117,12.3134155l-0.4004593-3.6545105l-4.9568939-45.2489624
		C90.2660446,223.6155853,97.2660446,218.0924225,103.009552,211.6478729z M216.1208191,61.7864799
		c22.6256256-0.0016747,45.5925598,4.9982567,67.3078918,15.5569191
		c23.6430664,11.4957428,43.0201721,28.2419128,57.4241028,48.1478119l-1.9165039,0.3669739l-0.8734741,4.5693359
		l-0.5778198,3.0258789c-2.7142334-3.3221283-6.8707581-5.150528-12.1282959-5.1510925
		c-2.0091248,0-4.1442566,0.2548828-6.5281677,0.7792358c-7.4485168,1.6381836-13.9880066,5.219162-19.421814,10.5424805
		c-0.8768005-0.9559784-1.7714844-1.8947449-2.6795349-2.8206635c-1.4993286-1.5276947-3.0365601-3.0180664-4.6206055-4.4593964
		c-20.0899353-18.2860718-46.7917938-29.4343643-76.0984344-29.4343643c-39.8759155,0-74.9287872,20.6410446-95.0655746,51.8196182
		c-0.8300095,1.28508-1.630928,2.590332-2.409668,3.9110565c-0.0500793,0.0853882-0.1008606,0.1701355-0.1510849,0.2554474
		c-0.0317383-0.1259766-0.0657806-0.2509766-0.0981445-0.3764038c-0.3045502-1.1707611-0.6415329-2.3271484-1.0430374-3.4526978
		c-0.9304581-2.6098633-2.1107025-5.0216217-3.5050964-7.2292938c-5.8382339-9.241272-15.5290146-14.8000793-27.2579498-15.4515228
		C115.3793259,87.4954605,164.8445129,61.7898293,216.1208191,61.7864799z M40.2107315,215.9790039
		c-0.7067528-0.5939636-1.7748337-1.4914246-3.2462349-5.6167755c-3.3483543-9.3890076-3.0928421-18.3675232,0.5243454-26.4870911
		l3.6104202,32.8942566C40.7679977,216.447052,40.4589844,216.1877136,40.2107315,215.9790039z M89.7243958,320.6316833
		l-51.7603874-8.8452759l51.7604637,8.8452759c8.1713867,1.8612671,16.3357925,3.7482605,24.4934387,5.4978638
		c4.0787506,0.8748474,8.155899,1.7152405,12.231308,2.5010376c-4.0754089-0.7857971-8.1524811-1.6261902-12.231308-2.5010376
		C106.0602646,324.3799438,97.8957825,322.4929504,89.7243958,320.6316833z M354.6633606,283.4202576
		c-26.6750793,54.8616943-81.6026001,86.7931824-138.7645111,86.7931824c-22.6255493,0-45.5942993-4.9988098-67.3101196-15.5585022
		c-11.9129486-5.7919312-22.743309-12.9181213-32.4017868-21.1074219c7.1234665,1.4914856,14.2774887,2.875885,21.3935471,4.022644
		l3.949646,0.6359558l2.4959564-3.125824c5.7071686-7.1473389,11.725647-13.6821899,18.000061-19.6827698
		c16.0426941,8.7313843,34.4324799,13.6922607,53.9820099,13.6922607c8.1212311,0,16.0416412-0.8590393,23.6775208-2.4866028
		c33.4130096-7.1194458,61.3631439-28.9963989,76.705368-58.4826355c1.788208-3.4370117,3.4101563-6.9744873,4.8436584-10.6078491
		c2.1999207-5.5710144,3.9625549-11.3629303,5.262146-17.3266602c15.4726563-4.309433,30.2358398-8.6891022,43.3748779-13.8932037
		C368.587616,245.5863495,363.6401978,264.9590454,354.6633606,283.4202576z M314.4109192,309.250824l-3.1525574-6.4434204
		l6.7077942,2.5400391L314.4109192,309.250824z M296.0132446,327.1374817
		c0.7351379,1.0966797,0.5622253,2.0070496-0.5208435,2.734314l-5.5979309,3.7549438l-2.2322083-3.3276978l5.2062378-3.4915771
		c0.5990601-0.4017029,1.1390991-0.6024475,1.6208191-0.6024475
		C295.0883789,326.2050171,295.5960388,326.5150757,296.0132446,327.1374817z M291.3190002,324.3274841l-5.2832947,3.5452271
		l-2.0234985-3.0141602l4.7566833-3.1893921c0.6068726-0.4082642,1.1455994-0.6124573,1.6174927-0.6124573
		c0.5399475,0,0.9906311,0.2687683,1.3509216,0.8065186C292.4100037,322.8671875,292.2705078,323.6893921,291.3190002,324.3274841z
		 M317.4039612,268.6481628c-15.8284912,30.4221497-44.0698242,51.9533386-77.4806976,59.0717163
		c-7.743988,1.666626-15.7917023,2.5122681-23.9151001,2.5122681c-18.7657623,0-37.3468933-4.6430054-53.7913666-13.4335938
		c-6.1522064,5.9337158-11.9686737,12.3202515-17.2982025,18.9945679l-2.4960938,3.125824l-0.415451,0.5208435l-0.6588287-0.1058655
		l-3.9495697-0.6359558c-5.162323-0.8321838-10.7320786-1.8529053-16.9206924-3.1011353
		c8.802803,7.015686,18.4076462,13.0708618,28.6100082,18.0306091
		c21.0744171,10.2474976,43.5526581,15.4436951,66.8108826,15.4436951c28.2992554,0,56.0384979-7.8345337,80.2180634-22.6546326
		c24.8333435-15.2228088,44.7225037-37.1790466,57.519043-63.4960327
		c8.4391174-17.3547058,13.4702759-35.8181458,14.9651794-54.9041443
		c-12.9627991,5.0145111-27.384613,9.2491608-41.137207,13.0855103c-1.2896118,5.7527924-3.0264282,11.4120483-5.1672058,16.8302917
		C320.8766174,261.5320129,319.2300415,265.1374207,317.4039612,268.6481628z M181.5677338,341.7445679l-4.787384-1.6575928
		c0.1985779-0.9617004-0.0612488-1.7670898-0.7853088-2.4164124c-0.4914093-0.4529419-1.2940063-0.8723755-2.4068756-1.2583008
		c-0.5727539-0.1974182-1.1003723-0.2967529-1.5818176-0.2967529c-0.2548828,0-0.496933,0.0278931-0.7262878,0.0836487
		c-0.6625977,0.1617432-1.0897675,0.51651-1.2794342,1.0664673c-0.277832,0.8009949,0.1578522,1.5104675,1.3096466,2.1251526
		l5.1102753,2.7420349c3.2094727,1.7257385,4.3953705,3.79953,3.5581055,6.2191772
		c-0.8043365,2.3214111-2.5144348,3.4816589-5.1321106,3.4816589c-1.400528,0-3.0610352-0.3325195-4.980957-0.9972839
		c-2.5830078-0.8946838-4.4499207-1.8652344-5.6005859-2.9127502c-1.7262878-1.5449829-2.2144318-3.4258423-1.4629669-5.6435547
		l4.8549194,1.6811523c-0.5623016,1.717926,0.5096283,3.0443115,3.2109985,3.9801941
		c0.8472443,0.293457,1.5684357,0.4396057,2.1635742,0.4396057c1.0001373,0,1.6438446-0.4138794,1.9305267-1.2426758
		c0.2002716-0.5790405,0.109314-1.0843506-0.2733612-1.5150146c-0.2939453-0.3525391-0.8918152-0.7663879-1.7893524-1.2437744
		l-3.7332458-1.9656372c-1.606308-0.8388672-2.7234344-1.666626-3.3549805-2.4832458
		c-0.8572845-1.1288452-1.0295105-2.4274597-0.522049-3.8977356c0.743515-2.1484985,2.3454895-3.2239075,4.8047638-3.2239075
		c1.3458405,0,2.9483032,0.3223877,4.8069153,0.966095C180.2892761,335.6402893,182.5119934,338.2975159,181.5677338,341.7445679z
		 M214.5551758,350.0553894c-0.2103729,2.362793-0.9916992,4.2179871-2.3421478,5.5644531
		c-1.6086731,1.6253357-3.9629517,2.4385986-7.0646667,2.4385986c-0.5756073,0-1.1775208-0.0278931-1.8044739-0.0837708
		c-4.0069733-0.3569946-6.7769165-1.6531677-8.312561-3.8887939c-1.0914612-1.5639038-1.531601-3.5273438-1.3208008-5.8912048
		c0.2113495-2.3626404,0.9916992-4.2167053,2.3415833-5.5643616c1.609787-1.6252747,3.9662323-2.4384766,7.0702362-2.4384766
		c0.574646,0,1.1752319,0.027832,1.8011322,0.0835571c4.0053101,0.3581238,6.7764435,1.6542969,8.3125,3.8899231
		C214.3258209,345.7293396,214.7665253,347.6927185,214.5551758,350.0553894z M234.372345,356.8770142l-4.5234985,0.6693115
		l-2.4621277-16.6451721l14.8736725-2.2008972l0.4696655,3.1704102l-10.3510742,1.5316772l0.5376587,3.6366577l9.6985168-1.4346619
		l0.4695892,3.1704102l-9.6996307,1.4346619L234.372345,356.8770142z M268.3799438,348.0430298l-4.2758789,1.6175537
		l-4.8169556-12.7419128l-5.8420715,2.2088318l-1.1346283-2.9985962l15.9602509-6.0339661l1.1333618,2.9974976l-5.8421631,2.2098694
		L268.3799438,348.0430298z M301.0287476,327.9731445c-0.2164001,1.5094299-1.2795105,2.9015198-3.1849365,4.1799011
		l-9.9606628,6.682251l-9.3751221-13.9734802l10.4906616-7.0379333c1.0552979-0.7084351,2.0716248-1.0609131,3.04776-1.0609131
		c0.0723572,0,0.1460876,0.0011292,0.2186279,0.0055847c1.2146912,0.0924988,2.2254333,0.7395325,3.0308838,1.9399414
		c0.40271,0.6001587,0.6269531,1.2449646,0.6725769,1.9320679c0.0458374,0.8020935-0.1716003,1.506073-0.653595,2.112854
		l0.0267944,0.0401917c0.4339294-0.1951904,0.8779297-0.293457,1.3318787-0.293457
		c0.4418945,0,0.8925171,0.0926819,1.353241,0.277832c0.8388672,0.348053,1.5282593,0.9248047,2.0704651,1.7335815
		C300.8771057,325.6739807,301.1872253,326.8273621,301.0287476,327.9731445z M324.5378723,307.827301l-3.4805298-1.3218689
		l-5.2074585,5.7138062l1.6411133,3.3434143l-3.3187866,3.6411133l-7.4529724-16.8024597l3.7137146-4.077301l17.4225769,5.8633423
		L324.5378723,307.827301z M335.025177,254.9971466l12.8801575,3.9768219l3.0232544-9.7956085l3.1982422,0.9873047
		l-4.3718872,14.1641388l-16.0796509-4.9630432L335.025177,254.9971466z M335.6711121,286.1699829l5.0266418-8.9344177
		l2.9160156,1.6410522l-7.2688293,12.9191284l-14.6650391-8.2505493l2.2422485-3.9847107L335.6711121,286.1699829z
		 M208.8144531,345.709198c0.7391205,1.0922241,1.0415039,2.3973999,0.905899,3.9156494
		c-0.1354675,1.5171814-0.6641998,2.7475586-1.5834961,3.6913452c-0.9695129,0.9995728-2.2360535,1.4992981-3.7995911,1.4992981
		c-0.2298431,0-0.4657593-0.0112305-0.7083588-0.0323486c-1.8952942-0.1694336-3.2870331-0.9168701-4.178299-2.2422791
		c-0.7384796-1.0910034-1.0396881-2.3962708-0.9041443-3.9144592c0.1355286-1.5170898,0.6625214-2.7475586,1.5840454-3.6913452
		c0.9682617-0.9995117,2.233963-1.4992981,3.796814-1.4992981c0.2303162,0,0.4674225,0.0100403,0.7111359,0.0323486
		C206.5310364,343.6365662,207.9238281,344.3850403,208.8144531,345.709198z M88.4265442,273.0187683l-4.8738098-44.4881439
		c6.8393555-3.7727356,12.9575882-8.4347076,18.2330475-13.8863068c-0.0067673,0.4634552-0.0100403,0.9130859-0.0100403,1.3554077
		c0,16.7354889,3.5362701,32.8518372,10.5117874,47.9173279c-7.7184753,3.4570313-15.6572952,7.1964417-23.6384659,11.1332397
		L88.4265442,273.0187683z M329.8145142,206.0919342c-0.1316833-1.5205078-0.3000793-3.0805664-0.5032654-4.6618958
		l5.3614502-1.02742l17.430481-3.3389282l4.5758972-0.8767548l0.7619019-0.1461945l0.1451111-0.7623444l0.8678894-4.5772247
		l3.7693787-19.8629303c2.6194153,8.474884,4.5069885,17.1856842,5.6247253,25.9650574
		C356.2418518,201.1287689,342.2316589,203.928299,329.8145142,206.0919342z M80.3431931,199.3500977l-4.5597839-41.0578918
		c3.2338867,0.9270325,5.7283096,3.7995911,7.4268265,8.5617981
		C86.5680084,176.2705078,85.2866898,189.6291199,80.3431931,199.3500977z M114.7010345,147.2271271
		c1.4586334,2.3091431,2.6750793,4.8175201,3.6155777,7.4558411c0.153389,0.4293365,0.302803,0.8795319,0.4506836,1.3547668
		c0.4082031-0.6626587,0.8143158-1.3074036,1.2159653-1.9282227c21.1674805-32.7749023,57.0648041-52.3422165,96.0249023-52.3422165
		c28.5044556,0,55.8032074,10.5592957,76.8669891,29.7315903c1.52948,1.3911133,3.0989685,2.906662,4.6675415,4.5046692
		c0.6725769,0.6860352,1.3052368,1.3452911,1.9143372,1.9940033c5.4538879-5.0657806,11.8828125-8.4385529,19.1260376-10.0315323
		c2.465332-0.5421982,4.6808777-0.8060074,6.7736511-0.8060074c4.625,0.0005569,8.5261536,1.3442383,11.4199219,3.9110565
		l0.1638489-0.8577728l0.8736267-4.5698853l0.1461182-0.7613754l0.7607422-0.1456451l0.1427917-0.0272751
		c-14.5466614-19.6013489-33.8514099-35.6010742-55.9347839-46.3383102
		c-21.0728149-10.2463684-43.5455475-15.4419632-66.7937317-15.4419632h-0.0009766
		c-25.2549591,0.0017433-50.384491,6.3401947-72.684433,18.3307037
		c-22.146347,11.9079285-41.1147461,29.218544-54.9630966,50.1390991
		C99.6857529,132.5431061,108.9442673,138.1141815,114.7010345,147.2271271z M272.5220337,85.3016891l4.7767334,2.4609375
		l0.5198669,8.5117188l7.2319946-4.518631l4.776947,2.4603119l-11.6386108,6.331337l-2.6872864,5.2174911l-4.0650024-2.0938873
		l2.6872864-5.2163086L272.5220337,85.3016891z M243.7296295,76.4242477l16.5067596,4.3181458l-0.8121338,3.100235
		l-6.0417938-1.5807724l-3.447052,13.1779404l-4.4232025-1.1556854l3.4471283-13.1785049l-6.0419312-1.5807037
		L243.7296295,76.4242477z M212.1985168,73.7446976l11.3061523,0.3608398
		c2.1675568,0.0679398,3.7348022,0.6843567,4.7043152,1.847374c0.7562714,0.9190903,1.1132813,2.0709457,1.0697479,3.4524994
		c-0.0579529,1.8228226-0.5779114,3.212822-1.5606079,4.1711807c-0.9248047,0.9046402-2.2243958,1.3564453-3.896698,1.3564453
		c-0.1014252,0-0.2041626-0.0017471-0.3078308-0.0050278l-7.0899048-0.2253723l-0.1912689,6.0055771l-4.5699005-0.1443939
		L212.1985168,73.7446976z M178.7001953,78.8114548l7.6315613,10.6512222l2.097168-12.9335251l6.5399017-1.5339661
		l3.8425598,16.381279l-4.3132629,1.0119247L191.41922,79.2643661l-2.1395721,14.3498917l-3.7416382,0.8763199
		l-8.2986145-11.8990631l3.0788879,13.1238174l-4.3126984,1.0124817l-3.8441772-16.3819046L178.7001953,78.8114548z
		 M156.7584381,86.6264648l1.5020905,2.831192l-9.8464661,5.225235l1.6343536,3.0812683l9.3477936-4.9603806l1.4356079,2.7064056
		l-9.3470917,4.9602356l1.8110962,3.4141312l9.9305267-5.268692l1.5021667,2.8302155l-13.9688263,7.4127426l-7.8869934-14.8641205
		L156.7584381,86.6264648z M221.4208221,81.7955475l-4.8994751-0.1545792l0.1494751-4.6880569l5.3233185,0.1696472
		c0.8166809,0.0261536,1.4168549,0.1718063,1.8016815,0.4345703c0.5388641,0.3629303,0.7931824,1.0389938,0.7608185,2.0284576
		c-0.0323639,1.0040436-0.3836517,1.6622467-1.0530853,1.9711914c-0.3558807,0.1640625-0.9192963,0.2454681-1.6866608,0.2454681
		C221.6895905,81.8022461,221.5580292,81.8000107,221.4208221,81.7955475z"/>
	<path style="fill:#F8DA0C;" d="M55.5696449,285.778595L43.3275871,174.2513123l24.4752007-15.3733978l6.5014267,58.535202
		c17.0210876-9.6010132,22.4548874-36.3709106,16.4375916-53.245224
		c-2.977356-8.3471985-8.7944183-14.2054901-17.4376984-14.2049103c-3.4397659,0-7.328125,0.9281311-11.6614151,2.9964142
		c-28.0204124,13.3753662-39.6812592,35.7349854-31.1339302,59.7059937
		c2.8691788,8.0431061,5.5666618,8.2304382,6.2459984,9.5691223c-4.6619377,2.2244568-8.7191296,3.4571381-12.1751194,3.4571381
		c-5.3919983,0-9.3198795-3.000885-11.7880974-9.9194794c-7.4797134-20.9751434,17.2062569-56.1959686,46.0934677-69.9841614
		c9.6746788-4.6183014,18.1121178-6.6285706,25.2622643-6.6279907c1.7268524,0,3.3784256,0.1176605,4.9541473,0.3436127
		c11.0310822,1.5834961,18.3441238,8.5004883,21.6834793,17.8654938
		c7.1428452,20.0274658-3.7828064,51.2640839-34.9178772,66.1248016l-0.8645096,0.4139862l5.4751587,49.9821625
		L55.5696449,285.778595z M120.9208603,179.3238068c0.8550339,3.5384521,3.806221,5.6791687,7.3637772,5.7996826
		l7.8032074-2.9891205c2.9277802-2.6081543,4.483963-6.4797211,3.6299591-10.0131531
		c-0.8840485-3.657959-4.0840302-5.8789825-7.8422852-5.8789825c-1.2081146,0-2.4731293,0.2292786-3.738266,0.7139587
		C122.9366074,168.9496765,119.755127,174.4889069,120.9208603,179.3238068z M360.8033447,135.9149017
		c4.163208-4.3150177,8.6867981-8.9322891,14.4932556-10.0450287c0.622406-0.1193695,1.2125854-0.1756744,1.7703552-0.1756744
		c4.3249512,0,6.6821289,3.4023895,6.76474,7.3319855c0.0836182,4.0862274-2.6104431,9.0565796-8.5395508,10.1927338
		c-0.4897156,0.093689-0.927002,0.1371918-1.3197327,0.1371918c-4.8091736,0-2.6951904-6.5393372-5.4539185-6.5393372
		c-0.1249695,0-0.2598877,0.0133514-0.4049683,0.0413513c-3.6322632,0.696579-5.7762451,2.8647308-8.7436829,6.1299286
		l-8.7715454,46.222229l-17.4305115,3.339447l2.4017334-12.5628052
		c-6.0930481,8.5356598-14.3582458,16.0176697-25.9354553,18.5644684c-2.1753235,0.477951-4.217804,0.72789-6.104248,0.72789
		c-5.3145142,0-9.3862305-1.9845581-11.6764832-6.4450989c-4.8705139,9.4419861-10.9446106,12.3307037-15.604248,13.532196
		c-1.8842773,0.4864044-3.5697937,0.7089233-5.0713501,0.7089233c-6.8595581,0-9.8804321-4.6429596-10.3935547-10.0131531
		c-0.7441101-7.807785,3.3343201-23.3317566,2.6337585-30.6804352c-0.3045654-3.1860504-1.5138245-4.8900452-3.6824036-4.8900452
		c-0.410553,0-0.8556213,0.0613251-1.3364258,0.1851654c-4.7031708,1.21315-7.7720184,9.1820984-8.2015228,12.4690399
		l-4.7623596,39.464325l-17.3624268,4.4812317l1.4267883-11.7412567
		c-5.3624268,8.6087799-12.9415131,16.3204803-24.1215515,19.7162628c-2.8289795,0.859024-5.4628296,1.3152771-7.8534851,1.3152771
		c-4.6668549,0-8.4016724-1.7413483-10.8252258-5.6246796c-4.8593445,10.4025574-12.3457947,14.4319-17.1337433,16.0774078
		c-0.4474335,0.1538696-0.8919067,0.2900391-1.3326263,0.4071198c-1.3213196,0.3525238-2.6064453,0.5377045-3.8318176,0.5377045
		c-3.3171844,0-6.1891022-1.3576508-8.1212311-4.4232025c-0.2761078-0.4372711-0.5326691-0.9102173-0.7692413-1.4190063
		c-4.4777985,10.1147156-11.6708984,14.2902527-16.3371735,16.0795898
		c-1.9522247,0.7485809-3.8609467,1.1523895-5.6481171,1.1523895c-3.8223267,0-7.0904083-1.8485107-9.0482178-6.127655
		c-0.4518051-0.9884491-0.8337936-2.1050873-1.1367416-3.3590088c-0.5030823-2.0882874-0.7329102-4.6407013-0.7786179-7.5031433
		l-0.4763336-38.3421021l17.0222168-6.5198212l0.5086823,40.6082611c-0.0100403,1.5640717,0.1371918,2.7074127,0.375946,3.6958771
		c0.4864044,2.0168915,1.4172668,2.8825531,2.9344025,2.8825531c0.7965393,0,1.754837-0.2387543,2.8943024-0.6748962
		c3.9346313-1.5070648,6.868454-5.9581299,7.9248657-11.0651093c-0.0166626-0.8122101-0.0178223-1.6455383,0.0044708-2.517807
		l1.0419006-33.8152008l-3.9322205,1.352066l0.0836182-4.7906952l3.9323425-1.3531952l0.5756226-16.6283417l17.1995087-8.2947693
		l-0.6168518,19.0245972l7.1484375-2.4574738l-0.0836182,4.7906799l-7.1495819,2.4581604l-1.1055298,36.0986023
		c-0.074707,1.5741119,0.0222626,2.7319794,0.2197723,3.7359619c0.4127197,2.1207275,1.3480682,3.0198517,2.9494781,3.0198517
		c0.7586212,0,1.6666565-0.2019653,2.7387238-0.5711517c3.3198242-1.1411896,6.029541-4.3885956,7.5644684-8.404541
		c-0.1114807-0.54216-0.2242432-1.0809937-0.3111572-1.6622009c-1.94104-13.1316986,1.9577179-42.7071533,26.3057709-50.1010742
		c2.5306091-0.7685699,4.6513214-1.1071472,6.4267273-1.1071472c5.7126465,0.0005646,7.8378296,3.5072784,8.4246368,7.4797058
		c0.8209839,5.5482635-1.6554565,9.1391602-5.1326904,10.1955872c-0.6224518,0.1885986-1.2862701,0.2844391-1.9789581,0.2844391
		c-0.7764435,0-1.5896606-0.1209717-2.4208221-0.3686218c0.5912628-2.7822571,0.7363586-5.1923218,0.4507599-7.1161194
		c-0.3509216-2.3649445-1.3481598-3.7906799-2.996994-3.7906799c-0.3239594,0-0.6725922,0.0547028-1.0469513,0.1684875
		c-7.5555573,2.2952728-12.287735,25.379364-10.4314728,37.9454956c0.8321991,5.6201324,2.7319946,7.6370087,5.9364471,7.6370087
		c1.1858368,0,2.5506897-0.2766571,4.1057281-0.7485657c9.108551-2.7670593,14.1006165-9.0966644,18.9532166-16.9328918
		l7.5088348-61.7959747l17.6278992-6.9013519l-3.7504883,30.6163483c4.5381165-6.8182983,9.7554626-9.106842,13.4948425-10.0706177
		c1.6732788-0.4317932,3.2652588-0.6604919,4.7444153-0.6604919c5.3422852,0,9.19104,2.9875183,9.8782654,10.1816406
		c0.8867798,9.3014984-3.5776367,24.6888275-2.9618225,31.1199951c0.2197876,2.3231506,1.1746216,3.8402863,3.4459534,3.8402863
		c0.5354004,0,1.1445007-0.084198,1.8338623-0.2621765c3.896698-1.0067291,5.8890381-3.8123932,7.4987793-7.8657074
		c-0.0379028-0.4132996-0.0880432-0.808197-0.1116028-1.242157c-0.6960144-13.3414307,5.7026978-43.0267792,30.491394-48.4785309
		c1.9310913-0.4244843,3.6043396-0.6191406,5.0545349-0.6191406c6.6331482,0.0005798,8.576355,4.0722809,8.8284607,8.8307495
		c0.6939697,13.3414307-12.0668335,26.5913544-26.5355225,30.5939484c-0.0357361,1.6504364-0.070343,3.3008575,0.0021973,4.6925659
		c0.3223267,6.1812134,2.2310791,8.2667542,5.8342896,8.2667542c0.9962158,0,2.1218872-0.1594543,3.3779907-0.4355621
		c9.3214417-2.0498962,14.821167-8.1786957,20.3755188-15.8514557l7.5567017-39.5390472l17.4282227-3.3393555
		L360.8033447,135.9149017z M308.3278198,168.7996826c9.2780762-2.627121,17.0332947-13.3682861,16.5324402-22.9971619
		c-0.1337891-2.557312-0.789856-4.1799927-2.5188599-4.1799927c-0.2321167,0-0.4819641,0.029007-0.7530212,0.0887604
		C315.4205017,143.0666504,310.1438904,156.7828827,308.3278198,168.7996826z M138.6704102,330.8032837
		c-16.2881775-2.6238098-32.6031952-6.4489746-48.9459686-10.1716003l-51.7604141-8.8452454
		C245.2779388,187.9319,365.7809143,239.1629639,404.1134338,179.2099152
		c-2.6884766,1.1356812-5.3869629,1.8964844-7.8222046,2.3070374c-1.5116272,0.2548523-2.9171448,0.3736572-4.2200623,0.3736572
		c-9.3417053,0-13.4123535-6.1282501-13.381073-12.4065704c0.0256042-5.3948364,3.1938477-9.9127502,6.4712524-11.9893799
		c6.8338318-12.753006,11.2481079-25.0993652,15.0566406-37.2248001l17.9313965-5.3658371
		c1.2851257,29.732193,2.8413086,36.4645996,2.3258972,44.4842834
		C415.2912903,256.1596069,233.7832947,211.6875458,138.6704102,330.8032837z M403.0480957,160.2210541
		c0.0301514-6.098175-1.0407715-9.550293-2.1641235-27.4074402c-2.4586487,8.0314484-5.881134,15.6394348-9.9161987,23.8187103
		c1.5707092,0.4395752,2.7755432,1.6420898,2.7666016,3.6355743c-0.0144958,2.8145752-2.2076416,6.1148376-5.3546143,6.64534
		c-0.3134766,0.0529938-0.6425476,0.0847778-0.9693909,0.0847778c-0.9360352,0-1.8496399-0.2637787-2.292511-1.0581512
		c-0.0244751,4.7495575,1.4915161,7.1513062,5.3166809,7.1513062c0.6147156,0,1.2895813-0.0619202,2.0270691-0.1863098
		C397.7894287,172.0068665,403.0068359,168.4309387,403.0480957,160.2210541z"/>
	<path style="fill:#C61342;" d="M101.7757416,215.9997253c0,16.7354889,3.536293,32.8518524,10.5117645,47.9173584
		c-7.7184219,3.4570313-15.6572495,7.1964417-23.6384506,11.1332092l-0.2224884-2.0314941l-4.8738403-44.4881744
		c6.8393707-3.7727203,12.9576111-8.4346771,18.2330551-13.8863068
		C101.7790146,215.1077576,101.7757416,215.5573883,101.7757416,215.9997253z M83.2102585,166.8540344
		c-1.6985779-4.762207-4.1929398-7.6348114-7.426857-8.5618439l4.5598145,41.0579224
		C85.286705,189.6291351,86.5679932,176.2704926,83.2102585,166.8540344z M329.3112488,201.4300537
		c0.203186,1.5812988,0.3715515,3.1413879,0.5032654,4.6618958c12.4171448-2.163681,26.4273376-4.9631653,38.0335388-9.2886353
		c-1.1177063-8.7793884-3.0053101-17.4901733-5.6246948-25.9650726l-3.7694397,19.8629303l-0.8678284,4.5772552
		l-0.1451111,0.7623444l-0.7619019,0.1462097l-4.5758972,0.8767395l-17.4305115,3.338913L329.3112488,201.4300537z
		 M119.9832764,154.1094971c-0.4016647,0.6208191-0.8077927,1.2656097-1.216011,1.9282379
		c-0.1478271-0.4752197-0.2972412-0.925415-0.4506836-1.3547668c-0.9404831-2.6383362-2.156929-5.1466675-3.6155777-7.4558411
		c-5.7567291-9.1129608-15.0152512-14.684021-26.2142639-15.8285065
		c13.8483734-20.9205475,32.8167267-38.2311096,54.9631195-50.139061
		c22.299942-11.9905014,47.4294586-18.3289948,72.684433-18.3307304h0.0009766
		c23.2481537,0,45.720871,5.1956139,66.7936859,15.4420128c22.0833435,10.7371826,41.3881226,26.7369003,55.9347839,46.3383179
		l-0.1427917,0.0272522l-0.7607422,0.1456528l-0.1461487,0.7613678l-0.8735657,4.5698547l-0.1638794,0.8577881
		c-2.8937683-2.5668182-6.7949219-3.9104996-11.4199219-3.9110565c-2.0927734,0-4.3083191,0.2638245-6.7736206,0.8059921
		c-7.2432556,1.5929947-13.6721802,4.9657974-19.1260376,10.0315781c-0.6091003-0.6487427-1.2417603-1.3079834-1.9143677-1.9940338
		c-1.5685425-1.5980225-3.1380615-3.1135712-4.667511-4.5046692
		c-21.0637817-19.1722794-48.3625031-29.7315979-76.8669891-29.7315979
		C177.0480194,101.7672882,141.1507263,121.33461,119.9832764,154.1094971z M158.2605438,89.4576721l-1.5020905-2.831192
		l-13.8857422,7.3682098l7.8869476,14.8641586l13.9688568-7.4127579l-1.5021667-2.8302307l-9.9305573,5.2686768
		l-1.8110962-3.4141388l9.3471222-4.9602356l-1.4356232-2.7063904l-9.3477631,4.9603729l-1.6343689-3.0812302
		L158.2605438,89.4576721z M177.2394104,82.5915222l8.298584,11.8990326l3.7416382-0.8762665l2.1395569-14.3498917
		l3.0789032,13.12397l4.3132935-1.011879l-3.8425903-16.3813019l-6.539917,1.5339508l-2.097168,12.9335632l-7.631546-10.6512146
		l-6.5387421,1.5344391l3.8441162,16.3818665l4.3127289-1.0124359L177.2394104,82.5915222z M227.7181091,83.576561
		c0.9827118-0.9583282,1.5026398-2.3483124,1.5606537-4.1711121c0.0435028-1.3816147-0.3134766-2.5334244-1.069809-3.4525604
		c-0.9694824-1.1629639-2.5367126-1.7793732-4.7042999-1.8473587l-11.3061676-0.3608093l-0.535965,16.8190918l4.56987,0.1443939
		l0.1913147-6.0055695l7.0898743,0.2254105c0.1036835,0.0032806,0.2063904,0.0050201,0.3078308,0.0050201
		C225.4936829,84.9330673,226.7933044,84.4812698,227.7181091,83.576561z M242.9174042,79.5248795l6.0419006,1.5807343
		l-3.447113,13.1784973l4.4232178,1.1557083l3.447052-13.1779404l6.0417633,1.5807343l0.8121948-3.1001816l-16.5068207-4.318161
		L242.9174042,79.5248795z M277.2987671,87.7625961l-4.7767334-2.460907l1.6018982,13.152977l-2.6873169,5.2163162
		l4.0650635,2.093895l2.6872864-5.2175064l11.6385803-6.3313141l-4.7769165-2.46035l-7.2320251,4.5186081L277.2987671,87.7625961z
		 M368.6011047,228.0163574c-1.4949036,19.085968-6.5260315,37.549469-14.9651794,54.9041443
		c-12.7965088,26.3169861-32.6856689,48.2732544-57.5190125,63.4960327
		c-24.1795654,14.8200989-51.9188385,22.6546021-80.2180786,22.6546021c-23.258194,0-45.7364655-5.1961975-66.8109131-15.4436646
		c-10.2023315-4.9597473-19.8071594-11.0149536-28.6099625-18.0306396
		c6.1885757,1.248291,11.7583847,2.2689514,16.9206772,3.1011658l3.9496002,0.6359253l0.6588135,0.1059265l0.4154663-0.5209045
		l2.496048-3.1257935c5.3295288-6.6743164,11.1460266-13.0608826,17.2982178-18.9945679
		c16.4444733,8.7905579,35.0255737,13.4335632,53.7913818,13.4335632c8.1233826,0,16.1710815-0.8456116,23.9151001-2.5122375
		c33.4108124-7.1183777,61.6521759-28.6495667,77.4806976-59.0717468c1.8260498-3.5107117,3.4725952-7.1161194,4.8927612-10.7160034
		c2.1407776-5.4182892,3.877594-11.0774994,5.1671753-16.8303223
		C341.2164917,237.2654724,355.6383362,233.030838,368.6011047,228.0163574z M213.2359467,344.1653442
		c-1.5360413-2.2356262-4.3071442-3.5317993-8.3124542-3.8899231c-0.6259003-0.0557556-1.2264862-0.0835571-1.8011322-0.0835571
		c-3.1040192,0-5.4604797,0.8131714-7.070282,2.438446c-1.3498993,1.3476563-2.1302185,3.2017517-2.3415375,5.5644226
		c-0.2108612,2.3638,0.2292938,4.32724,1.3208008,5.8911743c1.5356293,2.2356262,4.305542,3.5317993,8.3125305,3.8887939
		c0.6269379,0.0558472,1.2288513,0.0837402,1.8044739,0.0837402c3.1017303,0,5.4560242-0.8132629,7.0646515-2.4385986
		c1.3504944-1.3464661,2.1318207-3.2016296,2.3421631-5.5644226
		C214.7665558,347.6927185,214.3258362,345.7293396,213.2359467,344.1653442z M174.9007416,333.775116
		c-1.8585968-0.6436768-3.4610748-0.9660645-4.8069153-0.9660645c-2.4593048,0-4.0612335,1.0754089-4.8047485,3.223877
		c-0.5075073,1.4703064-0.3352966,2.7689209,0.5220032,3.8977356c0.631546,0.8166504,1.748703,1.6443787,3.3550262,2.4833069
		l3.7332611,1.9656067c0.897522,0.477356,1.4953918,0.8912354,1.7893372,1.2437439
		c0.3826294,0.4306641,0.4736328,0.9360046,0.2733154,1.5150146c-0.2866974,0.8288574-0.9303741,1.2427063-1.9305267,1.2427063
		c-0.5951385,0-1.3162842-0.1461487-2.1635437-0.4396057c-2.7013702-0.9358826-3.7732697-2.2622681-3.2110443-3.9802246
		l-4.8548889-1.6811218c-0.7514496,2.2177124-0.2633362,4.0985413,1.4629822,5.6435547
		c1.1506348,1.0475159,3.0175781,2.0180359,5.6005554,2.9127197c1.9199371,0.6647949,3.5804443,0.9973145,4.9810028,0.9973145
		c2.6176453,0,4.327774-1.1602783,5.1320953-3.4816589c0.8372345-2.4196777-0.3486176-4.4934387-3.5581207-6.2191772
		l-5.11026-2.7420349c-1.1518097-0.6146851-1.5875092-1.3241577-1.3096619-2.1251831
		c0.1896515-0.5498962,0.6168213-0.9047241,1.2794647-1.0664673c0.2293091-0.0556946,0.4713898-0.0836182,0.7262878-0.0836182
		c0.4814301,0,1.0090179,0.0993042,1.5817871,0.2967529c1.1128998,0.3858948,1.9154816,0.8053284,2.4068604,1.2582703
		c0.7240753,0.6493225,0.9839172,1.4547424,0.7853546,2.4164124l4.787384,1.6575928
		C182.5119934,338.2975159,180.2892761,335.6403198,174.9007416,333.775116z M321.057312,306.5054626l3.4805603,1.3218689
		l3.3176575-3.6399841l-17.4226074-5.8633118l-3.7137146,4.0772705l7.4529724,16.8024902l3.3187866-3.6411438l-1.6410828-3.3433838
		L321.057312,306.5054626z M323.9221497,279.5604858l-2.2422485,3.9847107l14.6650391,8.2505493l7.2687988-12.9190979
		l-2.9159851-1.6410522l-5.0266724,8.9344177L323.9221497,279.5604858z M350.9285278,249.17836l-3.0231934,9.7956696
		l-12.8801575-3.9768829l-1.349884,4.3696136l16.0796204,4.9630737l4.3719177-14.1641388L350.9285278,249.17836z
		 M300.0972595,324.5115662c-0.5421448-0.8087463-1.2315369-1.385498-2.0704346-1.733551
		c-0.4607239-0.1851807-0.9113464-0.277832-1.353241-0.277832c-0.453949,0-0.8979492,0.0982361-1.3318787,0.293457
		l-0.0267944-0.0402222c0.4819946-0.606781,0.6994629-1.31073,0.6536255-2.112854
		c-0.0456543-0.6870422-0.2698669-1.3319092-0.6726074-1.9320679c-0.8054199-1.2004089-1.8161621-1.8474121-3.0308533-1.9399414
		c-0.0726013-0.0044556-0.1462708-0.0055847-0.2186584-0.0055847c-0.9761047,0-1.9924316,0.3525085-3.0477295,1.0609131
		l-10.4906616,7.0379333l9.3750916,13.9735413l9.9606628-6.682312c1.9054565-1.2783508,2.9685669-2.6704712,3.1849365-4.1799011
		C301.1871948,326.8273926,300.8770447,325.6740112,300.0972595,324.5115662z M263.5618591,335.3023071l5.8421631-2.2098694
		l-1.1334229-2.9974976l-15.9601746,6.0339966l1.1345673,2.9985962l5.8420868-2.2088623l4.8169556,12.7419128l4.2758789-1.6175537
		L263.5618591,335.3023071z M243.0847473,348.7747498l-0.4695892-3.1704102l-9.6985168,1.4346924l-0.5377045-3.6366882
		l10.3511353-1.5316772l-0.4697113-3.1704102l-14.873642,2.2009277l2.4620819,16.6451416l4.5235596-0.669281l-0.9872589-6.6676025
		L243.0847473,348.7747498z M294.4893188,326.2050171c-0.4817505,0-1.021759,0.2007751-1.6208191,0.6024475l-5.2062378,3.4916077
		l2.2322083,3.3276672l5.5979004-3.7549133c1.0830994-0.7272949,1.256012-1.6376648,0.520874-2.734314
		C295.5960083,326.5151062,295.0883789,326.2050171,294.4893188,326.2050171z M204.6384583,343.4681702
		c-0.2437286-0.0223389-0.4807892-0.0323792-0.7111664-0.0323792c-1.5628052,0-2.828537,0.4997559-3.7967682,1.4992981
		c-0.921524,0.9437561-1.4485321,2.1742249-1.5840912,3.6913147c-0.1355286,1.518219,0.1656799,2.8234558,0.9041595,3.9145203
		c0.8912506,1.3253479,2.2829742,2.0727844,4.178299,2.2422485c0.2426453,0.0211182,0.4785004,0.0323486,0.708374,0.0323486
		c1.5635071,0,2.8300934-0.4997559,3.7995758-1.4992981c0.919281-0.9438171,1.4480438-2.1741943,1.5835114-3.6913757
		c0.1356201-1.518219-0.1667633-2.8234253-0.905899-3.9156189
		C207.9238281,344.3850403,206.5310059,343.6365662,204.6384583,343.4681702z M291.7372742,321.8632202
		c-0.36026-0.5377197-0.8109436-0.806488-1.3509521-0.806488c-0.4718628,0-1.0105896,0.2041626-1.6174622,0.6124268
		l-4.7566528,3.1893921l2.023468,3.0141907l5.2832642-3.5451965
		C292.2705078,323.6894226,292.4100037,322.8671875,291.7372742,321.8632202z M314.4109192,309.250824l3.5552368-3.9033508
		l-6.7077942-2.5400391L314.4109192,309.250824z M223.7958221,77.5571213
		c-0.3848572-0.2627869-0.9850311-0.408432-1.8016815-0.4345856l-5.323349-0.169632l-0.1494751,4.6881027l4.8994904,0.1545792
		c0.1372223,0.0044632,0.2687836,0.006691,0.3961029,0.006691c0.7673492,0,1.33078-0.0814362,1.6866302-0.245491
		c0.6694183-0.3089447,1.0207367-0.9671783,1.0530853-1.9711838
		C224.588974,78.5961075,224.3347015,77.9200821,223.7958221,77.5571213z"/>
</g>
</svg>
